Coordinates
version=1
nRows=15
nColumns=34
inDegrees=yes

Units are S.I. units (second, meters, Newtons, ...)
If the header above contains a line with 'inDegrees', this indicates whether rotational values are in degrees (yes) or radians (no).

endheader
time	pelvis_tilt	pelvis_list	pelvis_rotation	pelvis_tx	pelvis_ty	pelvis_tz	hip_flexion_r	hip_adduction_r	hip_rotation_r	knee_angle_r	ankle_angle_r	subtalar_angle_r	mtp_angle_r	hip_flexion_l	hip_adduction_l	hip_rotation_l	knee_angle_l	ankle_angle_l	subtalar_angle_l	mtp_angle_l	lumbar_extension	lumbar_bending	lumbar_rotation	arm_flex_r	arm_add_r	arm_rot_r	elbow_flex_r	pro_sup_r	arm_flex_l	arm_add_l	arm_rot_l	elbow_flex_l	pro_sup_l
      0.00000000	      1.54000841	    -22.37930490	    -53.52498346	      2.89653328	      0.73716668	      7.69670678	     55.00241610	      6.82299599	     -5.78444725	     29.39238635	    -38.86240746	     10.03457313	      0.00000000	     46.89794479	     -0.88488656	     -2.06342811	      9.79643232	    -18.22415107	     -5.31681392	      0.00000000	    -45.69467289	     15.34403224	     19.27221964	     11.98268426	      8.38114203	     22.36471284	     51.95977425	    109.98409501	     18.86384786	      6.12328089	     -3.36604177	     30.26562467	    109.96625302
      0.01666670	      1.71128420	    -22.32291254	    -53.66700875	      2.89647534	      0.73654857	      7.69615592	     55.01388828	      6.76419263	     -5.65598414	     29.42527324	    -38.92067106	     10.25617580	      0.00000000	     47.26765128	     -0.91812392	     -1.97811253	     10.74050665	    -17.73902307	     -5.38169404	      0.00000000	    -45.97652144	     15.06213950	     19.32914883	     12.17365322	      8.08696399	     22.87881961	     52.19179759	    110.07699039	     19.05331077	      6.15682997	     -3.63615779	     30.40166371	    109.94262155
      0.03333330	      2.16565136	    -22.19740550	    -54.25514400	      2.89741230	      0.73607880	      7.69579824	     55.01926610	      6.94294523	     -4.94914190	     29.72566786	    -38.85809927	     10.43225729	      0.00000000	     47.48790490	     -1.09685738	     -0.93347550	     12.37533917	    -15.86091771	     -5.79323917	      0.00000000	    -46.31986571	     14.56334792	     19.37810705	     11.94719269	      7.57252157	     22.93247897	     52.43158140	    110.13065405	     18.90521717	      6.59211798	     -4.02959469	     30.50284587	    109.89036736
      0.05000000	      2.23399950	    -22.06336364	    -54.56340115	      2.89490877	      0.73572472	      7.69592746	     54.87811549	      7.65079438	     -3.39839665	     29.01897380	    -39.58762881	      9.53185600	      0.00000000	     49.02994810	     -1.44325333	     -0.86028389	     15.82332031	    -15.11926685	     -7.05346125	      0.00000000	    -46.31843161	     13.46811318	     18.47761055	     12.08372036	      7.89697547	     23.59809198	     52.72428293	    110.36784217	     18.54856032	      6.27336908	     -6.03919666	     30.72855181	    109.70016988
      0.06666670	      3.01656411	    -21.86450589	    -54.88325863	      2.89212415	      0.73624694	      7.69686015	     54.56973695	      7.90848511	     -2.19522980	     28.94601917	    -39.71013723	      9.19199702	      0.00000000	     50.24772983	     -1.43961259	     -0.05536842	     19.39751829	    -15.99518707	     -8.29459564	      0.00000000	    -46.60132398	     11.72773147	     17.58482197	     11.97154661	      8.58982474	     23.77350121	     52.39777328	    110.56489920	     18.38011324	      5.54177857	     -7.29199091	     31.04283116	    109.80016161
      0.08333330	      3.76170893	    -21.94811004	    -54.49193106	      2.89128968	      0.73604196	      7.69769237	     54.69799887	      7.57566067	     -1.79550046	     30.12579140	    -39.07972120	      8.80314360	      0.00000000	     50.93105459	     -0.98921960	      0.82708506	     21.93454585	    -16.94887383	     -8.45118101	      0.00000000	    -46.77409133	     10.66043239	     16.44648502	     12.25725707	      8.93378579	     23.66822368	     51.77116801	    110.66952015	     18.34956397	      4.80531605	     -7.40207933	     31.24636952	    110.00971009
      0.10000000	      4.11960429	    -21.26649203	    -53.96835471	      2.89422750	      0.73675305	      7.69580669	     55.17520523	      6.76407640	     -0.93221296	     30.42349656	    -39.52289002	      8.66836417	      0.00000000	     51.28806579	      0.01334413	      0.60624272	     22.32229150	    -18.68066619	     -8.50891554	      0.00000000	    -46.09420969	     10.44785227	     15.03273946	     11.86735277	      8.49259459	     22.89327767	     50.87035123	    110.81441471	     17.70440897	      4.87898798	     -6.41389549	     31.65523453	    110.47970991
      0.11666670	      4.59795751	    -21.17800122	    -53.55393404	      2.89721127	      0.73869097	      7.69456036	     55.05501571	      6.30505017	     -0.03612432	     30.86100329	    -39.35391072	      8.52463647	      0.00000000	     51.65675975	      0.67920443	      1.16386037	     23.82980089	    -21.66143544	     -9.50080081	      0.00000000	    -45.74733724	     10.17084189	     13.69445391	     11.47745042	      8.51285329	     21.45177451	     49.67733992	    110.94574944	     17.25603270	      4.58212954	     -5.04669070	     31.65324308	    110.96707318
      0.13333330	      5.00739663	    -21.27299265	    -53.22693236	      2.90037236	      0.74036590	      7.69468219	     55.03858425	      5.96115845	      0.27936429	     31.83460573	    -38.78608546	      8.10164028	      0.00000000	     51.89876823	      1.28626514	      1.16645691	     25.35517753	    -25.13470580	    -11.71643239	      0.00000000	    -45.54752285	      9.74945016	     12.58556503	     11.05020765	      8.44360798	     20.22233691	     48.38461122	    111.32568068	     16.56700931	      4.14616428	     -3.55709727	     30.84222134	    111.48265253
      0.15000000	      5.02972139	    -20.98089823	    -53.05775433	      2.90215530	      0.74118647	      7.69477827	     55.50450077	      5.65400750	      0.35385326	     32.34210617	    -39.13695920	      7.74439783	      0.00000000	     52.19236219	      1.87509998	      2.02082173	     25.56515189	    -29.54382297	    -13.67787059	      0.00000000	    -45.07615780	      9.12472071	     11.25198785	     10.93602385	      8.36179133	     19.93339999	     46.64464912	    111.81725937	     16.23353300	      3.82777866	     -2.66127698	     30.23884692	    111.80001124
      0.16666670	      4.91347844	    -20.38611367	    -52.93269443	      2.90229773	      0.74112498	      7.69565347	     56.17988788	      5.72647905	      1.20939260	     32.65908728	    -39.37908356	      6.38402720	      0.00000000	     52.39974582	      2.34720554	      2.23949144	     24.75268063	    -35.12094164	    -16.46937631	      0.00000000	    -44.44737796	      8.37916688	      9.68442385	     11.14847800	      8.66439998	     19.15886672	     45.03379640	    112.24942946	     16.04611601	      3.06944658	     -2.10138698	     29.73987072	    112.05452987
      0.18333330	      4.97863806	    -19.71428653	    -53.26356003	      2.90337330	      0.74174246	      7.69605940	     56.67309832	      5.93275280	      2.18087522	     32.73941514	    -39.96129584	      4.99367814	      0.00000000	     52.64561764	      2.56100539	      1.75713308	     24.20827917	    -40.04895419	    -18.99360014	      0.00000000	    -43.95557009	      7.45016264	      7.98800517	     11.08051031	      8.75012956	     18.81960021	     43.09298608	    112.62435875	     15.63271585	      2.22049781	     -1.26047337	     29.54112027	    112.35067662
      0.20000000	      5.54916863	    -18.93724289	    -53.65368130	      2.90509433	      0.74228014	      7.69550948	     57.05546720	      5.65469609	      3.02496283	     32.95825288	    -40.01123414	      4.85388967	      0.00000000	     52.25720620	      2.61623720	     -0.64359125	     22.99533985	    -43.60545431	    -19.38756242	      0.00000000	    -43.78578126	      6.34214402	      6.77530814	     10.83054693	      8.15625943	     18.63513366	     41.93006268	    113.17271077	     14.95426225	      1.88070444	      0.10577475	     29.70862760	    112.73292297
      0.21666670	      5.79323102	    -17.93054599	    -54.10014860	      2.90665348	      0.74265674	      7.69394868	     57.43108584	      5.37754949	      3.58459153	     32.37536138	    -40.69343606	      4.28756675	      0.00000000	     51.76437240	      2.44454200	     -4.11364250	     20.88551548	    -44.18618292	    -17.88812374	      0.00000000	    -43.34481264	      5.32916359	      5.39169785	     10.59532560	      7.34468249	     18.39721767	     41.16185181	    113.69857701	     14.00067078	      1.63871125	      1.52233390	     30.08600772	    113.07671849
      0.23333330	      5.97416609	    -17.10707566	    -55.11826961	      2.90733369	      0.74244543	      7.69244865	     57.70704857	      5.93778435	      4.79796187	     31.70388492	    -41.64190480	      2.95577931	      0.00000000	     51.37476956	      1.85265638	     -7.52279574	     19.20294409	    -44.30045830	    -15.98846629	      0.00000000	    -42.96700281	      4.26627900	      4.59374272	     10.64110101	      6.17725688	     18.43925727	     40.96224206	    114.38896232	     13.21060015	      1.73252299	      2.95124161	     30.46646122	    113.38245721
